<svg width="24" height="22" viewBox="0 0 24 22" fill="none" xmlns="http://www.w3.org/2000/svg">
<mask id="path-1-inside-1" fill="white">
<path fill-rule="evenodd" clip-rule="evenodd" d="M12.8353 0.0957275L23.5813 5.89788C23.9684 6.10848 24.1131 6.59243 23.9046 6.97853C23.6951 7.3657 23.2101 7.50716 22.8229 7.30188L21.9529 6.83175L20.2234 19.053C19.9915 20.3708 18.8289 21.2728 17.3909 21.2728H7.51822C6.08231 21.2728 4.91869 20.3719 4.69107 19.0795L2.9584 6.83388L2.09154 7.30188C1.97134 7.3657 1.84052 7.3976 1.71288 7.3976C1.42995 7.3976 1.15447 7.2455 1.01088 6.9796C0.801342 6.59137 0.945997 6.10741 1.33316 5.89788L12.077 0.0957275C12.3142 -0.0319092 12.5982 -0.0319092 12.8353 0.0957275ZM17.393 19.6773C17.9004 19.6773 18.5343 19.4476 18.6481 18.803L20.4563 6.02338L12.4556 1.70501L4.45707 6.02551L6.26738 18.8285C6.37693 19.4476 7.0098 19.6773 7.52035 19.6773H17.393ZM12.4561 14.826C10.2384 14.826 8.43555 13.0221 8.43555 10.8055C8.43555 8.58887 10.2384 6.78494 12.4561 6.78494C14.6738 6.78494 16.4767 8.58887 16.4767 10.8055C16.4767 13.0221 14.6738 14.826 12.4561 14.826ZM12.4561 13.2306C13.7942 13.2306 14.8812 12.1435 14.8812 10.8055C14.8812 9.46743 13.7942 8.38039 12.4561 8.38039C11.118 8.38039 10.031 9.46743 10.031 10.8055C10.031 12.1435 11.118 13.2306 12.4561 13.2306Z"/>
</mask>
<path fill-rule="evenodd" clip-rule="evenodd" d="M12.8353 0.0957275L23.5813 5.89788C23.9684 6.10848 24.1131 6.59243 23.9046 6.97853C23.6951 7.3657 23.2101 7.50716 22.8229 7.30188L21.9529 6.83175L20.2234 19.053C19.9915 20.3708 18.8289 21.2728 17.3909 21.2728H7.51822C6.08231 21.2728 4.91869 20.3719 4.69107 19.0795L2.9584 6.83388L2.09154 7.30188C1.97134 7.3657 1.84052 7.3976 1.71288 7.3976C1.42995 7.3976 1.15447 7.2455 1.01088 6.9796C0.801342 6.59137 0.945997 6.10741 1.33316 5.89788L12.077 0.0957275C12.3142 -0.0319092 12.5982 -0.0319092 12.8353 0.0957275ZM17.393 19.6773C17.9004 19.6773 18.5343 19.4476 18.6481 18.803L20.4563 6.02338L12.4556 1.70501L4.45707 6.02551L6.26738 18.8285C6.37693 19.4476 7.0098 19.6773 7.52035 19.6773H17.393ZM12.4561 14.826C10.2384 14.826 8.43555 13.0221 8.43555 10.8055C8.43555 8.58887 10.2384 6.78494 12.4561 6.78494C14.6738 6.78494 16.4767 8.58887 16.4767 10.8055C16.4767 13.0221 14.6738 14.826 12.4561 14.826ZM12.4561 13.2306C13.7942 13.2306 14.8812 12.1435 14.8812 10.8055C14.8812 9.46743 13.7942 8.38039 12.4561 8.38039C11.118 8.38039 10.031 9.46743 10.031 10.8055C10.031 12.1435 11.118 13.2306 12.4561 13.2306Z" fill="white"/>
<path d="M23.5813 5.89788L24.0591 5.01942L24.0564 5.01795L23.5813 5.89788ZM12.8353 0.0957275L13.3105 -0.784201L13.3092 -0.78487L12.8353 0.0957275ZM23.9046 6.97853L24.7841 7.4545L24.7846 7.45364L23.9046 6.97853ZM22.8229 7.30188L22.3475 8.18168L22.3545 8.18537L22.8229 7.30188ZM21.9529 6.83175L22.4282 5.95197L21.1641 5.26888L20.9627 6.69163L21.9529 6.83175ZM20.2234 19.053L21.2083 19.2262L21.2112 19.2097L21.2135 19.1931L20.2234 19.053ZM4.69107 19.0795L3.70093 19.2196L3.7033 19.2364L3.70623 19.253L4.69107 19.0795ZM2.9584 6.83388L3.94854 6.69378L3.7473 5.27154L2.48333 5.95393L2.9584 6.83388ZM2.09154 7.30188L2.56051 8.18512L2.5666 8.18183L2.09154 7.30188ZM1.01088 6.9796L0.130873 7.45456L0.130973 7.45474L1.01088 6.9796ZM1.33316 5.89788L0.857981 5.01799L0.85719 5.01841L1.33316 5.89788ZM12.077 0.0957275L11.6031 -0.784871L11.6018 -0.784161L12.077 0.0957275ZM18.6481 18.803L19.6329 18.9769L19.6359 18.96L19.6383 18.9431L18.6481 18.803ZM20.4563 6.02338L21.4465 6.16348L21.544 5.47409L20.9313 5.14339L20.4563 6.02338ZM12.4556 1.70501L12.9306 0.825015L12.4554 0.568548L11.9804 0.825166L12.4556 1.70501ZM4.45707 6.02551L3.98181 5.14567L3.36948 5.47642L3.46692 6.16552L4.45707 6.02551ZM6.26738 18.8285L5.27723 18.9685L5.27966 18.9857L5.28268 19.0028L6.26738 18.8285ZM24.0564 5.01795L13.3105 -0.7842L12.3602 0.975655L23.1062 6.7778L24.0564 5.01795ZM24.7846 7.45364C25.2565 6.57951 24.9272 5.49165 24.0591 5.01943L23.1034 6.77632C23.0096 6.7253 22.9697 6.60535 23.0247 6.50342L24.7846 7.45364ZM22.3545 8.18537C23.218 8.64322 24.3086 8.33301 24.7841 7.4545L23.0252 6.50256C23.0816 6.39838 23.2022 6.3711 23.2914 6.41839L22.3545 8.18537ZM21.4775 7.71153L22.3475 8.18166L23.2983 6.4221L22.4282 5.95197L21.4775 7.71153ZM21.2135 19.1931L22.943 6.97187L20.9627 6.69163L19.2332 18.9128L21.2135 19.1931ZM17.3909 22.2728C19.2522 22.2728 20.8819 21.0809 21.2083 19.2262L19.2385 18.8797C19.1011 19.6607 18.4057 20.2728 17.3909 20.2728V22.2728ZM7.51822 22.2728H17.3909V20.2728H7.51822V22.2728ZM3.70623 19.253C4.02946 21.0882 5.66587 22.2728 7.51822 22.2728V20.2728C6.49874 20.2728 5.80792 19.6556 5.67591 18.9061L3.70623 19.253ZM1.96826 6.97397L3.70093 19.2196L5.68121 18.9394L3.94854 6.69378L1.96826 6.97397ZM2.5666 8.18183L3.43347 7.71383L2.48333 5.95393L1.61647 6.42193L2.5666 8.18183ZM1.71288 8.3976C2.00596 8.3976 2.2976 8.32469 2.5605 8.1851L1.62257 6.41866C1.64509 6.40671 1.67507 6.3976 1.71288 6.3976V8.3976ZM0.130973 7.45474C0.456348 8.05729 1.07788 8.3976 1.71288 8.3976V6.3976C1.78203 6.3976 1.85259 6.43372 1.89078 6.50445L0.130973 7.45474ZM0.85719 5.01841C-0.0154058 5.49067 -0.340705 6.58082 0.130873 7.45456L1.89089 6.50463C1.94339 6.60191 1.9074 6.72415 1.80913 6.77734L0.85719 5.01841ZM11.6018 -0.784161L0.857981 5.01799L1.80834 6.77776L12.5522 0.975616L11.6018 -0.784161ZM13.3092 -0.78487C12.7762 -1.07171 12.1362 -1.07171 11.6031 -0.78487L12.5508 0.976325C12.4922 1.00789 12.4201 1.00789 12.3615 0.976325L13.3092 -0.78487ZM17.6634 18.6291C17.6617 18.6384 17.6626 18.6287 17.6727 18.6151C17.6807 18.6043 17.6824 18.6075 17.6636 18.6185C17.6434 18.6303 17.6077 18.6461 17.5552 18.6586C17.5031 18.671 17.4465 18.6773 17.393 18.6773V20.6773C17.7798 20.6773 18.2493 20.5927 18.6728 20.3452C19.1221 20.0826 19.5173 19.6314 19.6329 18.9769L17.6634 18.6291ZM19.4662 5.88329L17.658 18.6629L19.6383 18.9431L21.4465 6.16348L19.4662 5.88329ZM11.9806 2.58501L19.9813 6.90338L20.9313 5.14339L12.9306 0.825015L11.9806 2.58501ZM4.93232 6.90536L12.9309 2.58486L11.9804 0.825166L3.98181 5.14567L4.93232 6.90536ZM7.25753 18.6885L5.44722 5.88551L3.46692 6.16552L5.27723 18.9685L7.25753 18.6885ZM7.52035 18.6773C7.46563 18.6773 7.40731 18.6709 7.35332 18.6583C7.29887 18.6455 7.26136 18.6292 7.23995 18.617C7.21961 18.6054 7.22256 18.6025 7.23309 18.6164C7.2383 18.6232 7.24336 18.6316 7.24728 18.6405C7.25121 18.6495 7.25218 18.6548 7.25208 18.6543L5.28268 19.0028C5.39847 19.6571 5.80381 20.0996 6.24704 20.3531C6.66675 20.5932 7.13309 20.6773 7.52035 20.6773V18.6773ZM17.393 18.6773H7.52035V20.6773H17.393V18.6773ZM7.43555 10.8055C7.43555 13.5742 9.68596 15.826 12.4561 15.826V13.826C10.7909 13.826 9.43555 12.47 9.43555 10.8055H7.43555ZM12.4561 5.78494C9.68596 5.78494 7.43555 8.03675 7.43555 10.8055H9.43555C9.43555 9.14098 10.7909 7.78494 12.4561 7.78494V5.78494ZM17.4767 10.8055C17.4767 8.03675 15.2262 5.78494 12.4561 5.78494V7.78494C14.1213 7.78494 15.4767 9.14098 15.4767 10.8055H17.4767ZM12.4561 15.826C15.2262 15.826 17.4767 13.5742 17.4767 10.8055H15.4767C15.4767 12.47 14.1213 13.826 12.4561 13.826V15.826ZM13.8812 10.8055C13.8812 11.5913 13.2419 12.2306 12.4561 12.2306V14.2306C14.3464 14.2306 15.8812 12.6958 15.8812 10.8055H13.8812ZM12.4561 9.38039C13.2419 9.38039 13.8812 10.0197 13.8812 10.8055H15.8812C15.8812 8.91515 14.3464 7.38039 12.4561 7.38039V9.38039ZM11.031 10.8055C11.031 10.0197 11.6703 9.38039 12.4561 9.38039V7.38039C10.5658 7.38039 9.031 8.91515 9.031 10.8055H11.031ZM12.4561 12.2306C11.6703 12.2306 11.031 11.5913 11.031 10.8055H9.031C9.031 12.6958 10.5658 14.2306 12.4561 14.2306V12.2306Z" fill="white" mask="url(#path-1-inside-1)"/>
</svg>
